# 이랑 사다리꼴 프리즘 (base 0.6m, top 0.3m, h 0.15m, len 6.0m)
mtllib ridge.mtl
v -0.3000 0.0000 0.0000
v 0.3000 0.0000 0.0000
v 0.3000 6.0000 0.0000
v -0.3000 6.0000 0.0000
v -0.1500 0.0000 0.1500
v 0.1500 0.0000 0.1500
v 0.1500 6.0000 0.1500
v -0.1500 6.0000 0.1500
vt 0.0000 0.0000
vt 1.0000 0.0000
vt 1.0000 6.0000
vt 0.0000 6.0000
vn 0.0000 0.0000 1.0000
vn 0.0000 0.0000 -1.0000
vn 0.7071 0.0000 0.7071
vn -0.7071 0.0000 0.7071
vn 0.0000 -1.0000 0.0000
vn 0.0000 1.0000 0.0000
usemtl soil
f 5/1/1 6/2/1 7/3/1 8/4/1
f 4/1/2 3/2/2 2/3/2 1/4/2
f 2/1/3 3/2/3 7/3/3 6/4/3
f 1/1/4 5/2/4 8/3/4 4/4/4
f 1/1/5 2/2/5 6/3/5 5/4/5
f 3/1/6 4/2/6 8/3/6 7/4/6
